<svg id="Layer_1" data-name="Layer 1" xmlns="http://www.w3.org/2000/svg" viewBox="0 0 676 676"><defs><style>.cls-1{fill:#3c556a;}.cls-2{fill:#f0f0f0;}</style></defs><g id="DevExperience"><path class="cls-1" d="M338,675.5A337.5,337.5,0,0,1,99.35,99.35a337.5,337.5,0,0,1,477.3,477.3A335.32,335.32,0,0,1,338,675.5Z"/><path d="M338,1A337.08,337.08,0,0,1,469.17,648.51a337.09,337.09,0,0,1-262.35-621A335,335,0,0,1,338,1m0-1C151.33,0,0,151.33,0,338S151.33,676,338,676,676,524.67,676,338,524.67,0,338,0Z"/></g><path class="cls-2" d="M85.26,155.31,89.34,150c5-6.46,11.5-7,18.32-1.78s8.16,11.85,3.3,18.18l-4.19,5.44ZM108.44,165c3.76-4.89,2.47-9.74-3-13.92s-10.26-4-14,.86l-1.81,2.37,17,13Z"/><path class="cls-2" d="M113.79,146.57a10.11,10.11,0,0,1-.84-14.66c3.9-4.27,9-4.24,13.15-.42a13.39,13.39,0,0,1,1.42,1.52l-11.46,12.55-2-1.79,10.1-11.05.11,1.28c-3.51-3.2-6.84-3.05-9.32-.34s-2.61,7,1.09,10.41,8.09,2.79,11.1-.51a10.92,10.92,0,0,0,2.72-5.8l2.49.59a13.77,13.77,0,0,1-3.48,7.36C124.84,150.17,118.74,151.09,113.79,146.57Z"/><path class="cls-2" d="M123.54,121.38l2.58-2.39,11.13,5.2c1.95,1,3.85,1.9,5.68,2.85l.12-.11c-.8-1.91-1.66-3.81-2.43-5.86l-4.33-11.49,2.43-2.25,7.52,20.42-2.82,2.62Z"/><path class="cls-2" d="M149.5,111.33a10.1,10.1,0,0,1,1.63-14.59c4.56-3.56,9.55-2.68,13,1.79a13,13,0,0,1,1.14,1.73l-13.4,10.45-1.63-2.08,11.81-9.21-.1,1.29c-2.93-3.75-6.23-4.16-9.14-1.9s-3.75,6.49-.67,10.43c3.2,4.11,7.51,4.12,11,1.37a11,11,0,0,0,3.66-5.26l2.35,1a13.88,13.88,0,0,1-4.66,6.68C159.79,116.73,153.62,116.61,149.5,111.33Z"/><path class="cls-2" d="M177.43,94.89l-10.88-16.7-6,3.88-1.51-2.32L167.92,74l12.52,19.24c1.58,2.42,3.57,2.6,5.58,1.29a9.15,9.15,0,0,0,2.66-2.81l2.13,1.67A12.15,12.15,0,0,1,187,97.32C183.35,99.67,180,98.88,177.43,94.89Z"/><path class="cls-2" d="M190.35,82.84c-3.18-6-.91-11.53,3.76-14s10.57-1.3,13.75,4.65.87,11.45-3.79,14S193.5,88.71,190.35,82.84Zm14.41-7.71c-2.19-4.09-5.91-5.61-9.3-3.8s-4.19,5.76-2,9.85,5.88,5.53,9.27,3.72S206.93,79.17,204.76,75.13Z"/><path class="cls-2" d="M209.86,61.38l2.58-1.11,1.28,2.24.12,0A10.61,10.61,0,0,1,219,56.91c5-2.14,9.23.4,11.69,6.14,2.7,6.28.33,11.66-4.12,13.57a9.46,9.46,0,0,1-6.54,0l-.08,0,1.66,3.43,2.67,6.23-3.15,1.36Zm17.61,3.06c-1.74-4.07-4.42-6.11-8.11-4.53-1.64.7-3.18,2.36-4.22,5.06l4,9.2a8.38,8.38,0,0,0,5.81,0C228.17,72.78,229.43,69,227.47,64.44Z"/><path class="cls-2" d="M232.47,52l2.6-.86,1.1,2.42.08,0c.4-2.09,1.17-3.7,3.37-4.43,1.89-.62,3.43.08,4.7,2.1.43-2.4,1.19-4,3.39-4.78,2.67-.88,4.93.68,6.19,4.48l4.53,13.67-3.22,1.06-4.45-13.42C250,50,249,49,247.61,49.51s-1.72,1.65-2.09,4l4.58,13.82-3,1-4.45-13.42c-.73-2.2-1.65-3.16-3.07-2.69s-1.87,1.71-2.16,4L242,70,238.8,71Z"/><path class="cls-2" d="M259.92,53.67a10.11,10.11,0,0,1,7.54-12.61c5.63-1.34,9.8,1.53,11.12,7a15.33,15.33,0,0,1,.32,2l-16.53,4-.62-2.57,14.56-3.48-.62,1.12c-1.11-4.62-3.95-6.37-7.53-5.51s-6.1,4.35-4.94,9.22c1.21,5.07,5.13,6.85,9.47,5.81a10.9,10.9,0,0,0,5.51-3.27l1.73,1.88a13.8,13.8,0,0,1-7,4.14C267.05,62.85,261.48,60.18,259.92,53.67Z"/><path class="cls-2" d="M283.92,38l2.78-.42.8,3.31.16,0c1.76-2.48,3.8-4.51,6.9-5,4.71-.71,7.29,1.74,8.08,7l1.87,12.35-3.4.51-1.79-11.9c-.57-3.77-2.14-5.33-5.38-4.84-2.37.36-3.78,1.79-5.72,4.5l2.1,13.87-3.4.51Z"/><path class="cls-2" d="M315.08,46.49l-.61-9.5-5.7.37-.17-2.56,5.81-.58,0-6.47,2.85-.19.41,6.44,9.83-.63.18,2.76-9.83.64.62,9.54c.23,3.59,1.55,5.37,5.43,5.11a13.2,13.2,0,0,0,4.73-1.21l.91,2.47a17.63,17.63,0,0,1-6.2,1.6C317.52,54.66,315.4,51.44,315.08,46.49Z"/><path class="cls-2" d="M363.08,27.22,379.78,29l-.31,2.92-13.24-1.39-.89,8.43,11.19,1.17L376.22,43,365,41.86l-1,9.78,13.65,1.44L377.35,56l-17.11-1.8Z"/><path class="cls-2" d="M391.7,47.91l-5.08-10.82,3.7.7,2.3,4.91c.48,1.23,1.07,2.56,1.68,3.77l.16,0c.93-.92,2-2,2.88-2.95l3.74-3.7,3.57.68L395.79,49l5.65,11.4-3.74-.72-2.54-5.2c-.64-1.26-1.28-2.77-1.91-4.07l-.16,0c-1,1-2.08,2-3.13,3.14l-4.12,3.89-3.57-.69Z"/><path class="cls-2" d="M412.65,42.46l2.71.76-.42,2.55.12,0a10.67,10.67,0,0,1,7.52-1.06c5.22,1.47,6.91,6.12,5.22,12.13-1.85,6.57-7.08,9.26-11.73,7.95A9.52,9.52,0,0,1,411,60.68l-.08,0-.87,3.71-1.84,6.53L404.9,70Zm11.77,13.45c1.2-4.26.4-7.53-3.46-8.62-1.71-.48-3.95-.17-6.46,1.27l-2.71,9.64a8.36,8.36,0,0,0,4.5,3.67C419.72,62.84,423.07,60.69,424.42,55.91Z"/><path class="cls-2" d="M433.05,58.86a10.1,10.1,0,0,1,13.3-6.21c5.41,2,7.26,6.76,5.26,12.06a12.79,12.79,0,0,1-.88,1.87l-15.91-6,.94-2.47,14,5.27-1.15.59c1.68-4.45.3-7.49-3.14-8.79s-7.5.19-9.26,4.87c-1.84,4.87.4,8.55,4.58,10.12a10.94,10.94,0,0,0,6.4.38l.38,2.53a13.85,13.85,0,0,1-8.13-.5C433.8,70.46,430.68,65.13,433.05,58.86Z"/><path class="cls-2" d="M463.64,60.28l2.57,1.23-1.75,4.43.08,0a10.57,10.57,0,0,1,10.36-.87,8.34,8.34,0,0,1,3.23,2.46l-2,2.31a10,10,0,0,0-3.07-2.2c-2.73-1.3-6-1.15-9.94,1.62l-5.07,10.6L455,78.42Z"/><path class="cls-2" d="M491.45,77.92l-8-4.72,1.41-2.38,11,6.45L485.63,94.6l-3-1.74Zm3.7-9a2.73,2.73,0,0,1,4.71,2.77,2.73,2.73,0,0,1-4.71-2.77Z"/><path class="cls-2" d="M500.51,91.94A10.1,10.1,0,0,1,515,89.31c4.72,3.35,5.31,8.39,2,13a13.34,13.34,0,0,1-1.33,1.59l-13.86-9.84,1.53-2.16,12.21,8.66-1.26.28c2.75-3.88,2.2-7.17-.81-9.3s-7.29-1.73-10.19,2.35c-3,4.25-1.78,8.37,1.86,11a11,11,0,0,0,6.1,2l-.29,2.54a13.81,13.81,0,0,1-7.72-2.54C498.29,103.35,496.63,97.4,500.51,91.94Z"/><path class="cls-2" d="M528.07,99.69l2.14,1.82-2,2.77.12.11c3-.31,5.89-.11,8.29,1.92,3.63,3.07,3.49,6.64.07,10.68l-8.07,9.53L526,124.3l7.77-9.18c2.46-2.91,2.6-5.12.11-7.23-1.83-1.55-3.84-1.68-7.16-1.34l-9.06,10.7L515.08,115Z"/><path class="cls-2" d="M540.11,123.5c4.78-4.77,11.12-3.85,15.41.45a10.19,10.19,0,0,1,3.09,7.26l-2.74.35a8.31,8.31,0,0,0-2.28-5.5c-3.27-3.28-7.72-3.35-11-.08s-3.2,7.63,0,10.88a9.54,9.54,0,0,0,6.17,2.61l-.5,2.66a12,12,0,0,1-7.86-3.43C536,134.25,535.4,128.2,540.11,123.5Z"/><path class="cls-2" d="M557.35,141A10.1,10.1,0,0,1,572,142.08c3.73,4.43,3,9.44-1.29,13.1a14.47,14.47,0,0,1-1.69,1.2l-11-13,2-1.71,9.65,11.45-1.29-.06c3.64-3.06,3.92-6.38,1.55-9.2s-6.63-3.5-10.46-.27-3.82,7.66-.94,11.07a11,11,0,0,0,5.4,3.46l-.91,2.38a13.71,13.71,0,0,1-6.84-4.4C552.35,151.5,552.23,145.32,557.35,141Z"/></svg>