<svg id="Layer_2" data-name="Layer 2" xmlns="http://www.w3.org/2000/svg" viewBox="0 0 676 676"><defs><style>.cls-1{fill:#426a26;}.cls-2{fill:#c3a081;}</style></defs><g id="SimulationDev"><path class="cls-1" d="M338,604.32A266.32,266.32,0,0,1,149.68,149.68,266.32,266.32,0,0,1,526.32,526.32,264.58,264.58,0,0,1,338,604.32Z"/><path d="M338,72.17A265.89,265.89,0,0,1,441.47,582.93,265.89,265.89,0,0,1,234.53,93.06,264.16,264.16,0,0,1,338,72.17m0-1C190.63,71.17,71.17,190.63,71.17,338S190.63,604.82,338,604.82,604.82,485.36,604.82,338,485.36,71.17,338,71.17Z"/></g><path class="cls-2" d="M560.12,349.57l2.22,2.31a11.52,11.52,0,0,0-4.14,7.66c-.35,3.75,1.23,6.08,3.72,6.32,2.92.28,4-1.76,5.38-4.4l2.12-3.78c1.35-2.6,3.56-5.58,7.6-5.2s6.88,4.44,6.38,9.64a11.91,11.91,0,0,1-4.17,8.08l-2.07-2a9.7,9.7,0,0,0,3.18-6.46c.3-3.16-1-5.42-3.45-5.66-2.62-.25-3.82,2.2-5,4.44l-2.07,3.66c-1.66,3.25-3.83,5.73-7.86,5.34-4.33-.41-7.43-4.41-6.86-10.4A13.92,13.92,0,0,1,560.12,349.57Z"/><path class="cls-2" d="M569,387.15l1.93-9.2,2.74.57L571,391.12l-19.88-4.18.72-3.39Zm9.81.66a2.76,2.76,0,1,1-3.18,2.15A2.6,2.6,0,0,1,578.82,387.81Z"/><path class="cls-2" d="M568.14,403.13l-.86,2.63-2.63-.57,0,.08c1.46,1.59,2.3,3.18,1.56,5.4-.63,1.91-2.13,2.73-4.54,2.56,1.7,1.79,2.58,3.4,1.84,5.62-.89,2.7-3.52,3.6-7.37,2.32l-13.81-4.56,1.07-3.25L557,417.84c2.22.73,3.58.48,4.06-.95s-.32-2.39-2-4.08l-14-4.61,1-3,13.58,4.48c2.22.74,3.56.56,4-.87s-.26-2.55-1.93-4.16l-14-4.61,1.07-3.26Z"/><path class="cls-2" d="M547.67,423.72,559.14,429l-1.44,3.15-11.06-5.07c-3.45-1.58-5.68-1.13-7.08,1.91-1,2.12-.7,4.13.76,7.28l12.8,5.87-1.45,3.15-18.46-8.46,1.2-2.62,3.35,1.21.07-.15c-1.31-2.85-1.84-5.71-.53-8.56C539.3,422.32,542.81,421.49,547.67,423.72Z"/><path class="cls-2" d="M532.46,452.06l17.27,10.37,3.7-6.17,2.4,1.44-5.48,9.14L530.46,454.9c-2.51-1.5-4.4-.79-5.65,1.29a9.37,9.37,0,0,0-1.17,3.74l-2.67-.58a12.38,12.38,0,0,1,1.76-5.29C525,450.34,528.34,449.59,532.46,452.06Z"/><path class="cls-2" d="M521.59,466.47c3.62,2.76,2.8,7.5-2.89,16.35,2.27,1.57,4.94,1.93,7.32-1.2a14.12,14.12,0,0,0,2.38-7.12l2.7.32a17.93,17.93,0,0,1-3.17,9c-3.37,4.42-7.65,4.58-11.67,1.51l-9.91-7.55,1.75-2.29,2.37,1.44.08-.1c-.05-2.83.52-6.06,2.25-8.33C515.1,465.47,518.7,464.27,521.59,466.47Zm-8.91,11.76,4.19,3.19c4.74-7.32,5-10.45,2.84-12.07-1.83-1.39-3.83-.29-5.24,1.57S512.57,475.2,512.68,478.23Z"/><path class="cls-2" d="M504.49,491.68l7,6.64,4-4.18,1.88,1.79-3.92,4.41,4.4,4.84-2,2.08-4.72-4.5-6.87,7.2-2-1.93,6.86-7.2-7-6.67c-2.64-2.51-4.83-2.93-7.55-.09a13.56,13.56,0,0,0-2.68,4.15L489.48,497a17.58,17.58,0,0,1,3.51-5.43C497.08,487.27,500.86,488.22,504.49,491.68Z"/><path class="cls-2" d="M489.11,519.52l7.21-6,1.8,2.14-9.87,8.27L475.2,508.33l2.66-2.23Zm7.31,6.58a2.76,2.76,0,1,1-3.83-.28A2.61,2.61,0,0,1,496.42,526.1Z"/><path class="cls-2" d="M472.86,523.1c3.77,5.68,2,11.51-2.44,14.47s-10.5,2.31-14.27-3.37-2-11.43,2.48-14.39S469.14,517.5,472.86,523.1Zm-13.75,9.14c2.59,3.89,6.48,5.07,9.72,2.92s3.66-6.19,1.07-10.09-6.44-5-9.67-2.86S456.54,528.37,459.11,532.24Z"/><path class="cls-2" d="M454.92,546.64l-2.53,1.3L450.56,545l-.15.07c-.88,2.95-2.18,5.54-5,7-4.27,2.2-7.54.68-10-4.08l-5.76-11.23,3.09-1.58L438.29,546c1.76,3.42,3.77,4.41,6.71,2.9,2.15-1.11,3.05-2.93,4-6.15l-6.47-12.61,3.09-1.59Z"/><path class="cls-2" d="M408.07,574.05l-6.56,1.69c-8,2-13.53-1.57-15.69-10s.88-14.51,8.7-16.52l6.72-1.73Zm-12.43-22.14c-6,1.55-8,6.21-6.3,12.93s5.66,9.59,11.69,8l2.92-.75-5.4-21Z"/><path class="cls-2" d="M379.8,563.19a10.21,10.21,0,0,1-8.75,12c-5.79.83-9.73-2.45-10.54-8.12a15.21,15.21,0,0,1-.13-2.09l17-2.44.38,2.65-15,2.15.73-1.08c.68,4.76,3.38,6.78,7.06,6.25s6.55-3.81,5.83-8.81c-.74-5.22-4.52-7.38-9-6.74a11.16,11.16,0,0,0-5.85,2.78L360,557.67a13.92,13.92,0,0,1,7.44-3.52C373.49,553.29,378.84,556.49,379.8,563.19Z"/><path class="cls-2" d="M355.67,576.55l-3.55.12-5-11.35q-1.29-3-2.45-5.94h-.16c-.65,2-1.26,4-2,6.09l-4.32,11.64-3.34.1,7.8-20.57,3.89-.12Z"/></svg>