<svg id="Layer_3" data-name="Layer 3" xmlns="http://www.w3.org/2000/svg" viewBox="0 0 676 676"><defs><style>.cls-1{fill:#6a4661;}.cls-2{fill:#c2c2c2;}</style></defs><g id="uiDev"><path class="cls-1" d="M323,603.9C182,596.08,71.67,479.38,71.67,338A266.32,266.32,0,0,1,526.15,149.51,264.65,264.65,0,0,1,604.32,337H323Z"/><path d="M338,72.17A265.59,265.59,0,0,1,603.81,336.5H322.5V603.37A265.82,265.82,0,0,1,338,72.17m0-1C190.63,71.17,71.17,190.63,71.17,338c0,142.5,111.71,258.9,252.33,266.43V337.5H604.82C604.55,190.37,485.19,71.17,338,71.17Z"/></g><path class="cls-2" d="M134.29,443.08l-15.46,7.19-1.5-3.22,15.54-7.23c5.12-2.38,5.93-5.48,4.56-8.43s-4.31-4.41-9.42-2l-15.54,7.23L111,433.52l15.46-7.19c7.13-3.32,11.48-1.1,13.74,3.75S141.42,439.77,134.29,443.08Z"/><path class="cls-2" d="M130.72,416.84l-2.17-6.46-20.37,6.85,2.18,6.45-2.82.95-5.46-16.24,2.81-.95,2.18,6.46,20.36-6.85-2.17-6.46,2.81-.94,5.46,16.24Z"/><path class="cls-2" d="M94.2,385.49l-.66-3L132,388.11l.66,3Z"/><path class="cls-2" d="M94.4,375.27l-.41-3.9,16.93-3.79c2.26-.48,3.57-.79,6.26-1.19v-.13c-2.76-.22-4.12-.37-6.42-.68L100.33,364l-.35-3.33,9.88-3.63c2.18-.82,3.49-1.21,6.14-2l0-.16c-2.72.11-4.06.17-6.33.15l-17.37-.12-.39-3.74,27.73,1.14.45,4.33-10.7,3.8a50.22,50.22,0,0,1-4.8,1.51v.13c1.7.11,3.3.2,5,.44L120.84,364l.45,4.24Z"/><path class="cls-2" d="M109,345.73a10.21,10.21,0,0,1-10.54-10.45c.05-5.85,3.88-9.25,9.61-9.2a16.14,16.14,0,0,1,2.09.18l-.14,17.18-2.68,0,.12-15.13,1,.89c-4.81,0-7.21,2.32-7.24,6s2.79,7,7.84,7.09c5.27,0,8-3.37,8-7.88a11.12,11.12,0,0,0-1.87-6.2l2.26-1.24a13.92,13.92,0,0,1,2.36,7.88C119.76,341,115.8,345.79,109,345.73Z"/><path class="cls-2" d="M118,317l0,.12,2.2.61-.33,2.73-29.55-3.56.42-3.45,8,1,3.88.63,0-.12a10,10,0,0,1-2.26-7.14c.66-5.43,5-7.9,11.26-7.14,6.89.83,10.4,5.63,9.82,10.4A10.09,10.09,0,0,1,118,317Zm-6.71-12.81c-4.44-.54-7.59.77-8.07,4.79-.22,1.79.44,4,2.27,6.26l10.05,1.21a8.54,8.54,0,0,0,3-5.16C118.91,307.82,116.24,304.8,111.26,304.2Z"/><path class="cls-2" d="M105.49,257.36l1.35-3.78,28.92.51-1.26,3.54-16-.69c-3.2-.12-6.34-.26-9.62-.54l0,.16c2.7,1.89,5.24,3.73,7.79,5.66l12.79,9.66-1.21,3.39Zm13.85,9.55,4.23-11.84,2.68.95L122,267.87Z"/><path class="cls-2" d="M119.36,241.15l1.24-2.55,2.46.87.06-.11a10.75,10.75,0,0,1,.29-7.67c2.4-4.92,7.32-5.78,13-3,6.2,3,7.94,8.7,5.8,13.1a9.68,9.68,0,0,1-5,4.29l0,.08,3.53,1.53,6.16,3-1.52,3.12Zm15.49-9.28c-4-2-7.42-1.75-9.19,1.89-.79,1.62-.88,3.9.1,6.65l9.1,4.43a8.46,8.46,0,0,0,4.46-3.82C140.89,237.79,139.36,234.07,134.85,231.87Z"/><path class="cls-2" d="M131.44,217.51l1.52-2.4,2.35,1.14.07-.11a10.8,10.8,0,0,1,1.13-7.59c2.93-4.63,7.92-4.93,13.26-1.56,5.82,3.69,6.93,9.53,4.32,13.66a9.65,9.65,0,0,1-5.47,3.72l0,.07,3.34,1.91,5.79,3.66L155.85,233ZM147.87,210c-3.78-2.39-7.18-2.56-9.35.87-1,1.52-1.3,3.77-.63,6.62l8.55,5.41a8.52,8.52,0,0,0,4.86-3.31C153.22,216.54,152.11,212.67,147.87,210Z"/><path class="cls-2" d="M157.86,170.06l4.79-4.78c5.82-5.82,12.44-5.52,18.59.63s6.61,12.94.91,18.64l-4.91,4.91Zm21.95,12.75c4.41-4.4,3.76-9.43-1.14-14.33s-9.75-5.39-14.16-1l-2.13,2.12,15.3,15.32Z"/><path class="cls-2" d="M187.69,165.08a10.22,10.22,0,0,1,1.48-14.77c4.57-3.65,9.62-2.81,13.19,1.66a14.15,14.15,0,0,1,1.18,1.74l-13.43,10.72-1.67-2.1,11.83-9.43-.09,1.3c-3-3.76-6.35-4.14-9.25-1.82s-3.72,6.61-.57,10.56c3.29,4.11,7.64,4.07,11.17,1.25a11.1,11.1,0,0,0,3.63-5.36l2.39,1a13.93,13.93,0,0,1-4.63,6.8C198.15,170.42,191.91,170.37,187.69,165.08Z"/><path class="cls-2" d="M201.78,141.3l3-1.89,10.08,7.23q2.64,2,5.12,3.9l.14-.09c-.45-2-.95-4.1-1.33-6.28L216.64,132l2.83-1.78,3.67,21.69-3.29,2.07Z"/><path class="cls-2" d="M229.51,136.21a10.21,10.21,0,0,1,4.72-14.06c5.27-2.54,10-.61,12.5,4.55a14.49,14.49,0,0,1,.75,2L232,136.12l-1.16-2.41,13.63-6.58-.38,1.25c-2.08-4.33-5.26-5.44-8.61-3.82s-5.09,5.61-2.9,10.16c2.29,4.75,6.54,5.66,10.61,3.7a11,11,0,0,0,4.73-4.42l2.11,1.49a13.86,13.86,0,0,1-6,5.6C238.52,143.74,232.45,142.31,229.51,136.21Z"/><path class="cls-2" d="M260.71,126.17l-6.71-19-6.78,2.39-.93-2.64,10-3.54,7.72,21.88c1,2.76,2.89,3.41,5.18,2.6a9.27,9.27,0,0,0,3.28-2.13l1.69,2.15a12.26,12.26,0,0,1-4.72,3C265.38,132.28,262.3,130.71,260.71,126.17Z"/><path class="cls-2" d="M276.38,117.46c-1.55-6.63,2.12-11.48,7.33-12.7s10.65,1.5,12.2,8.14-2.14,11.4-7.35,12.62S277.91,124,276.38,117.46Zm16.07-3.76c-1.06-4.55-4.3-7-8.08-6.13s-5.6,4.52-4.53,9.08,4.28,6.94,8.07,6.06S293.51,118.22,292.45,113.7Z"/><path class="cls-2" d="M301.35,101.68l2.82-.34.6,2.54.12,0a10.82,10.82,0,0,1,6.61-3.9c5.43-.65,8.82,3,9.57,9.3.81,6.85-3,11.39-7.88,12a9.67,9.67,0,0,1-6.33-1.9h-.08l.62,3.8.81,6.8-3.44.41Zm16.19,8C317,105.24,315,102.49,311,103c-1.78.21-3.75,1.37-5.53,3.69l1.19,10a8.5,8.5,0,0,0,5.63,1.69C315.83,118,318.13,114.66,317.54,109.68Z"/><path class="cls-2" d="M326.36,99.05h2.76l.3,2.67h.09c1-1.89,2.28-3.19,4.62-3.21,2,0,3.27,1.15,3.87,3.49,1.15-2.18,2.4-3.53,4.74-3.54,2.84,0,4.53,2.18,4.55,6.24l.1,14.54-3.43,0-.09-14.3c0-2.34-.69-3.55-2.2-3.54s-2.16,1.06-3.24,3.16l.1,14.71-3.18,0-.09-14.3c0-2.34-.61-3.54-2.12-3.53s-2.33,1.06-3.32,3.15l.1,14.72-3.43,0Z"/><path class="cls-2" d="M352.28,109.34a10.22,10.22,0,0,1,11.43-9.47c5.82.62,8.83,4.76,8.22,10.45a14.1,14.1,0,0,1-.38,2.07l-17.09-1.81.28-2.66,15.05,1.59-1,.86c.5-4.78-1.62-7.4-5.31-7.79s-7.29,2.09-7.82,7.12c-.55,5.24,2.57,8.26,7.06,8.73a11,11,0,0,0,6.36-1.26l1,2.38a13.87,13.87,0,0,1-8.07,1.58C356,120.49,351.57,116.07,352.28,109.34Z"/><path class="cls-2" d="M380.74,102.7l2.78.61-.46,3.41.17,0c2.56-1.7,5.21-2.87,8.31-2.19,4.7,1,6.25,4.29,5.1,9.52l-2.72,12.32-3.39-.74,2.62-11.88c.83-3.76-.09-5.8-3.32-6.51-2.36-.52-4.22.31-7,2.17l-3.05,13.84-3.39-.74Z"/><path class="cls-2" d="M407,122.19l3.1-9.1-5.46-1.86.83-2.45,5.65,1.7,2.53-6,2.73.93-2.1,6.18,9.42,3.2-.9,2.65-9.42-3.2-3.11,9.14c-1.17,3.44-.63,5.61,3.09,6.88a13.57,13.57,0,0,0,4.89.69l-.11,2.66a17.8,17.8,0,0,1-6.41-.9C406.15,130.77,405.42,126.94,407,122.19Z"/></svg>