<svg id="Layer_4" data-name="Layer 4" xmlns="http://www.w3.org/2000/svg" viewBox="0 0 676 676"><defs><style>.cls-1{fill:#548ab7;}</style></defs><g id="scrumMaster"><circle class="cls-1" cx="338" cy="338" r="197.26"/><path d="M338,141.23a196.26,196.26,0,1,1-76.59,15.47A195.56,195.56,0,0,1,338,141.23m0-1c-109.22,0-197.77,88.55-197.77,197.77S228.78,535.76,338,535.76,535.76,447.22,535.76,338,447.22,140.23,338,140.23Z"/></g><path d="M250.76,487.45l7.49,4.47-1.46,2.45-17.88-10.66,1.47-2.45,7.49,4.47,12-20.19,2.9,1.73Z"/><path d="M243.42,466.6a9.81,9.81,0,0,1-14.18,1.5c-4.33-3.58-4.54-8.5-1-12.74a14,14,0,0,1,1.4-1.44l12.72,10.52-1.63,2-11.21-9.27,1.24-.17c-2.95,3.56-2.64,6.78.11,9.06s6.94,2.2,10-1.54c3.23-3.9,2.33-8-1-10.75a10.59,10.59,0,0,0-5.76-2.37l.46-2.44a13.36,13.36,0,0,1,7.3,3C246.39,455.7,247.57,461.58,243.42,466.6Z"/><path d="M228,447.05c-3.28,2.9-7.59,1.24-14.87-5.79-1.91,1.85-2.74,4.3-.24,7.13a13.61,13.61,0,0,0,6.27,3.58l-.81,2.48a17.08,17.08,0,0,1-7.88-4.67c-3.54-4-2.89-8.06.75-11.28l9-7.94,1.84,2.08-1.8,2,.08.09a13.2,13.2,0,0,1,7.43,3.67C230.15,441.11,230.61,444.73,228,447.05Zm-9.42-10.61-3.79,3.36c6,5.83,8.92,6.64,10.85,4.93,1.66-1.46,1-3.55-.5-5.24S221.44,436.91,218.57,436.44Z"/><path d="M200.81,437.35l-1.43-2.24,2-1.62,0-.07c-2.07.13-3.77-.22-5-2.11-1-1.63-.74-3.25.86-4.94-2.37.18-4.1-.14-5.32-2-1.47-2.3-.54-4.8,2.75-6.9l11.78-7.53,1.78,2.78-11.58,7.39c-1.9,1.22-2.54,2.39-1.76,3.6s2,1.22,4.23,1L211,417.08l1.64,2.57-11.58,7.4c-1.89,1.21-2.57,2.31-1.8,3.53s2.06,1.36,4.28,1.09l11.92-7.61,1.77,2.77Z"/><path d="M169.77,389.79l-.86-3.22,22.71-6.06-3.36-12.58,2.76-.74,4.22,15.8Z"/><path d="M180.54,364.15a9.82,9.82,0,0,1-11.21-8.82c-.6-5.59,2.68-9.26,8.16-9.84a14.42,14.42,0,0,1,2-.06l1.76,16.42-2.55.28-1.55-14.46,1,.74c-4.6.49-6.63,3-6.25,6.57s3.44,6.42,8.27,5.9c5-.54,7.24-4.09,6.78-8.41a10.68,10.68,0,0,0-2.47-5.71l2-1.43a13.36,13.36,0,0,1,3.13,7.26C190.27,358.42,187,363.46,180.54,364.15Z"/><path d="M183.13,339.39c-4.37-.2-6.31-4.4-6.63-14.51-2.66,0-5,1.17-5.14,4.94a13.6,13.6,0,0,0,2,6.94L171.05,338a17.1,17.1,0,0,1-2.4-8.84c.26-5.34,3.55-7.79,8.41-7.56l12,.56-.13,2.77-2.67.16v.12A13.22,13.22,0,0,1,189,333C188.81,336.65,186.62,339.56,183.13,339.39Zm.63-14.17-5-.24c.24,8.38,1.77,11,4.34,11.11,2.2.1,3.18-1.86,3.29-4.11S185.5,327.56,183.76,325.22Z"/><path d="M180,315.4c-6.22-1.28-9.23-6.2-8.3-10.73a8.38,8.38,0,0,1,3.62-5.24l0-.08-3.54-.56-7.36-1.52.67-3.26,28,5.76-.54,2.67L190,302.2l0,.12a9.38,9.38,0,0,1,1.7,6.87C190.69,314.15,186.39,316.71,180,315.4ZM187.37,302l-9.53-2a7.25,7.25,0,0,0-3.23,4.55c-.68,3.3,1.68,6.58,6,7.48,4.57.94,7.72-.63,8.44-4.13C189.49,306,188.91,304.06,187.37,302Z"/><path d="M196.48,260.06l-3.65,6.33-2.16-1.24,3.65-6.34-6.79-3.91,1.33-2.29,6.79,3.91,3.64-6.34,2.16,1.24-3.65,6.34,6.79,3.91-1.32,2.3Z"/><path d="M226.81,232.51l-.12-3.08a11.07,11.07,0,0,0,7.86-2.88c2.65-2.47,3-5.16,1.35-6.92-1.92-2.06-4-1.25-6.67-.26l-3.95,1.37c-2.62,1-6.11,1.75-8.77-1.1s-2.13-7.58,1.54-11a11.52,11.52,0,0,1,8.16-3.16l.19,2.8a9.24,9.24,0,0,0-6.41,2.62c-2.23,2.08-2.74,4.54-1.12,6.27s4.15.86,6.4,0l3.82-1.32c3.26-1.28,6.4-1.69,9.06,1.17,2.85,3.05,2.54,7.9-1.69,11.85A13.43,13.43,0,0,1,226.81,232.51Z"/><path d="M241.24,211.16c-3.68-5.43-1.65-11.32,3.24-14.63A10,10,0,0,1,252,194.9l-.17,2.69a8,8,0,0,0-5.66,1.17,7.17,7.17,0,0,0-2.08,10.48c2.51,3.69,6.7,4.44,10.4,1.94a9.29,9.29,0,0,0,3.61-5.41l2.45,1a11.61,11.61,0,0,1-4.71,6.88C250.75,217,244.86,216.51,241.24,211.16Z"/><path d="M260.08,187.82l2.5-1.18,2.27,4,.07,0a10.3,10.3,0,0,1,5.71-8.34,8.18,8.18,0,0,1,3.83-.92l.53,2.9a10,10,0,0,0-3.55,1c-2.65,1.25-4.52,3.78-4.88,8.48l4.87,10.32-3,1.42Z"/><path d="M284.91,190.06l-3.44-11.64,3.2-.94L288,188.69c1,3.51,2.77,4.84,5.86,3.93,2.15-.64,3.44-2.11,4.8-5.15l-3.84-13,3.2-.94,5.54,18.73-2.66.78-1.24-3.19-.15,0c-1.24,2.76-3,4.95-5.88,5.8C289.18,197,286.37,195,284.91,190.06Z"/><path d="M305.94,171.72l2.63-.35.62,2.51h.08c.75-1.93,1.78-3.32,4-3.62,1.91-.26,3.26.7,4.12,2.85.83-2.22,1.86-3.65,4.09-3.95,2.7-.37,4.58,1.53,5.1,5.39l1.86,13.87-3.26.43-1.83-13.62c-.3-2.23-1.09-3.3-2.53-3.11s-1.94,1.28-2.7,3.41l1.88,14-3,.4-1.83-13.62c-.3-2.23-1-3.31-2.44-3.11s-2.1,1.29-2.79,3.41l1.88,14-3.26.44Z"/><path d="M359.76,163.18l4,.72,1.67,11.72L366,180l.16,0,2-4,5.65-10.43,4,.72-4.61,26-3.16-.56,2.3-13c.45-2.53,1.64-6.89,2.19-9.08l-.12,0L372,174.51l-5.54,9.54-2.37-.42-1.83-10.85-.6-5.34h-.08c-.15,2.26-.62,6.75-1.08,9.28l-2.3,13-3.09-.55Z"/><path d="M379.77,188.86c1.43-4.14,6-4.82,15.79-2.3.75-2.55.27-5.09-3.3-6.32a13.71,13.71,0,0,0-7.22,0l-.52-2.56a17.15,17.15,0,0,1,9.16.18c5.05,1.74,6.49,5.59,4.91,10.19l-3.9,11.32-2.62-.91.6-2.59-.12,0a13.19,13.19,0,0,1-8.27.47C380.82,195.08,378.64,192.17,379.77,188.86Zm13.43,4.58,1.64-4.79c-8.11-2.11-11-1.38-11.87,1-.72,2.09.89,3.58,3,4.32S390.47,194.45,393.2,193.44Z"/><path d="M400.71,199.12l2.38-1.24a14,14,0,0,0,6.27,6.3c2.91,1.53,5,1.07,5.74-.39.69-1.31.51-2.59-3.68-6-4-3.31-5.46-6-4.1-8.61,1.46-2.78,5-3.62,9.77-1.13a14.73,14.73,0,0,1,5.81,5.88l-2.42,1.14a11.47,11.47,0,0,0-4.84-4.87c-2.91-1.54-4.6-.93-5.29.39-.79,1.49.37,2.92,3.53,5.54,5.07,4.26,5.71,6.41,4.3,9.08s-5.45,3.71-10.39,1.11A17.19,17.19,0,0,1,400.71,199.12Z"/><path d="M428.7,209.62l5.5-7.42-4.45-3.3,1.48-2,4.67,3.22,4.09-4.78,2.23,1.66-3.73,5,7.68,5.7-1.6,2.16-7.69-5.69-5.53,7.45c-2.08,2.81-2.22,5,.82,7.21a12.59,12.59,0,0,0,4.27,2.06l-.88,2.41a17.08,17.08,0,0,1-5.6-2.71C425.37,217.21,425.83,213.5,428.7,209.62Z"/><path d="M445.05,219.57a9.81,9.81,0,0,1,14.26-.07c3.95,4,3.66,8.93-.27,12.79a12.65,12.65,0,0,1-1.54,1.29l-11.59-11.76,1.83-1.81L458,230.38l-1.25,0c3.29-3.24,3.32-6.48.81-9s-6.69-2.89-10.15.52c-3.61,3.56-3.13,7.71-.08,10.8a10.63,10.63,0,0,0,5.49,2.94l-.7,2.38a13.37,13.37,0,0,1-7-3.74C441,230.11,440.41,224.13,445.05,219.57Z"/><path d="M471.7,234.29l1.62,2.25-3.56,3,0,.06a10.33,10.33,0,0,1,9.23,4.11,8.34,8.34,0,0,1,1.6,3.61l-2.77,1a9.6,9.6,0,0,0-1.58-3.31c-1.71-2.39-4.54-3.77-9.22-3.28l-9.28,6.66-1.94-2.71Z"/><path d="M491.23,286.83l-2.25-7,2.37-.77,2.26,7,7.45-2.42.82,2.53-7.46,2.41,2.26,7-2.37.77-2.26-6.95-7.45,2.42-.82-2.53Z"/><path d="M513.86,328.48l0,6.51c.05,7.92-4.62,12.24-13,12.3s-13.33-4.22-13.38-12l0-6.67Zm-23.55,6.42c0,6,3.92,8.93,10.59,8.89s10.26-3,10.23-9l0-2.9L490.3,332Z"/><path d="M497,352.46a9.83,9.83,0,0,1,8.62,11.37c-.84,5.56-4.94,8.28-10.38,7.46a14.29,14.29,0,0,1-2-.45l2.45-16.33,2.54.38-2.15,14.38-.79-1c4.57.69,7.17-1.24,7.7-4.78s-1.7-7.08-6.51-7.8c-5-.75-8,2.13-8.68,6.42a10.67,10.67,0,0,0,.95,6.15l-2.33.88a13.4,13.4,0,0,1-1.18-7.82C486.13,355.55,490.55,351.5,497,352.46Z"/><path d="M502.37,379l-1,3.26-11.89,1c-2.1.13-4.16.25-6.17.33l0,.15c1.6,1.22,3.25,2.41,4.88,3.77l9.2,7.61-1,3.07-16.19-13.61,1.12-3.56Z"/><path d="M485.05,400.09a9.81,9.81,0,0,1,4.74,13.46c-2.49,5-7.23,6.38-12.16,3.94a12.47,12.47,0,0,1-1.73-1l7.31-14.81,2.31,1.14-6.45,13.05-.45-1.17c4.14,2,7.21,1,8.79-2.2s.54-7.26-3.82-9.42c-4.54-2.24-8.3-.42-10.22,3.47a10.55,10.55,0,0,0-1,6.15l-2.48.12a13.38,13.38,0,0,1,1.26-7.81C473.76,399.71,479.21,397.2,485.05,400.09Z"/><path d="M467,425.94l15.87,11.11,4-5.66,2.21,1.55-5.88,8.39-18.27-12.8c-2.3-1.61-4.17-1-5.5.86a8.79,8.79,0,0,0-1.38,3.5l-2.52-.74a11.89,11.89,0,0,1,2-4.95C459.91,423.78,463.2,423.29,467,425.94Z"/><path d="M459.41,441.57c4.71,4.55,4.29,10.38.72,14.09s-9.38,4.35-14.1-.19-4.23-10.32-.67-14S454.74,437.09,459.41,441.57ZM448.4,453c3.24,3.12,7.14,3.42,9.73.72s2.15-6.57-1.09-9.69-7.09-3.36-9.68-.67S445.19,449.92,448.4,453Z"/><path d="M446.92,467.63l-2.18,1.65L443,467.47l-.09.07a10.37,10.37,0,0,1-3.58,6.45c-4.2,3.18-8.8,1.78-12.47-3.05-4-5.29-3-10.92.71-13.76a9.26,9.26,0,0,1,6.18-1.51l.06-.05-2.36-2.85-4-5.25,2.66-2Zm-17.32,1.24c2.6,3.43,5.6,4.73,8.71,2.37,1.37-1.05,2.44-3,2.79-5.76l-5.88-7.74a8.18,8.18,0,0,0-5.49,1.34C427,461.17,426.68,465,429.6,468.87Z"/><path d="M421.94,473.79A9.83,9.83,0,0,1,418,487.51c-4.95,2.67-9.59,1-12.2-3.84a11.69,11.69,0,0,1-.81-1.84L419.54,474l1.22,2.27L408,483.16l.3-1.22c2.2,4.07,5.3,5,8.45,3.31s4.65-5.61,2.34-9.89c-2.4-4.46-6.53-5.16-10.35-3.1a10.66,10.66,0,0,0-4.36,4.45l-2.09-1.34a13.41,13.41,0,0,1,5.55-5.64C413,467,418.85,468.06,421.94,473.79Z"/><path d="M400.39,495.26l-2.61.93-1.85-4.25-.08,0a10.29,10.29,0,0,1-6.51,7.72,8.22,8.22,0,0,1-3.91.53l-.23-2.94a9.76,9.76,0,0,0,3.62-.6c2.77-1,4.89-3.31,5.71-8L390.72,478l3.15-1.11Z"/></svg>