<svg id="Layer_5" data-name="Layer 5" xmlns="http://www.w3.org/2000/svg" viewBox="0 0 676 676"><defs><style>.cls-1{fill:#fff;}</style></defs><g id="years"><circle class="cls-1" cx="338" cy="338" r="127.35"/><path d="M338,211.15a126.84,126.84,0,1,1-89.7,37.15A126,126,0,0,1,338,211.15m0-1A127.85,127.85,0,1,0,465.85,338,127.85,127.85,0,0,0,338,210.15Z"/></g><path d="M301.7,346.8l6.15-8.25c6.45,5.7,14.25,10.95,27,10.95,13.35,0,24.15-8.4,24.15-21.75,0-13.2-9.3-20.85-23.4-20.85-8,0-12.75,2-19.5,5.7l-6.6-4.2,3.15-46H366.8v10.79H323.6l-2.55,28.2a41,41,0,0,1,17.7-3.9c18.3,0,32.85,9.3,32.85,30s-17.1,32.4-35.4,32.4C319.1,359.85,309.05,353.4,301.7,346.8Z"/><path d="M276.2,406.35l-11-21.1h4.45l4.9,9.7c1.25,2.55,2.4,5.05,3.75,7.65h.2c1.3-2.6,2.6-5.1,3.85-7.65l4.75-9.7h4.3l-11,21.1v11.7h-4.2Z"/><path d="M296.7,405.85a12.22,12.22,0,0,1,12.4-12.7c7,0,11.1,4.55,11.1,11.4a16.86,16.86,0,0,1-.2,2.5H299.45v-3.2h18.1L316.5,405c0-5.75-2.85-8.6-7.3-8.6s-8.4,3.4-8.4,9.45c0,6.3,4.1,9.5,9.5,9.5a13.24,13.24,0,0,0,7.4-2.3l1.5,2.7a16.65,16.65,0,0,1-9.4,2.9C302.5,418.65,296.7,414,296.7,405.85Z"/><path d="M327.3,411.75c0-5.45,5.1-8.1,17.65-9.1-.15-3.3-1.75-6.1-6.45-6.1-3.15,0-6.25,1.5-8.5,2.9l-1.65-2.8a21.3,21.3,0,0,1,10.85-3.5c6.65,0,9.9,4,9.9,10v14.9h-3.45l-.35-3.3h-.15c-2.65,2.1-6.15,3.9-9.55,3.9C331.05,418.65,327.3,416.1,327.3,411.75ZM345,411.7v-6.3c-10.4.8-13.55,2.85-13.55,6.05,0,2.75,2.5,3.85,5.3,3.85S342.15,414,345,411.7Z"/><path d="M360.55,393.75H364l.4,5.75h.1c2.55-3.95,6.35-6.35,10.85-6.35a10.22,10.22,0,0,1,4.8,1l-.95,3.55a12.18,12.18,0,0,0-4.5-.8c-3.65,0-7.1,1.85-10,7v14.2h-4.15Z"/><path d="M386.85,414.85l1.9-2.75a17.34,17.34,0,0,0,10.55,3.3c4.1,0,6.1-1.7,6.1-3.75,0-1.85-.95-3.15-7.55-4.5-6.35-1.3-9.5-3.45-9.5-7.1,0-3.9,3.45-6.9,10.1-6.9a18.24,18.24,0,0,1,9.8,3.1l-2,2.65a14.34,14.34,0,0,0-8.15-2.55c-4.1,0-5.6,1.65-5.6,3.5,0,2.1,2.1,3,7.1,4,8,1.75,10,3.75,10,7.5,0,4-3.85,7.25-10.8,7.25A21.36,21.36,0,0,1,386.85,414.85Z"/></svg>